<svg xmlns="http://www.w3.org/2000/svg" width="15.328" height="15.752" viewBox="0 0 15.328 15.752">
  <path id="Path_85" data-name="Path 85" d="M6.68,14.309l.809.773a.855.855,0,0,0,1.2,0L15.5,8.262a.852.852,0,0,0,0-1.2L8.684.246a.855.855,0,0,0-1.2,0l-.8.773a.754.754,0,0,0-.23.595.876.876,0,0,0,.264.6l4.22,4.044H.844a.811.811,0,0,0-.6.246A.811.811,0,0,0,0,7.1V8.226a.811.811,0,0,0,.246.6.811.811,0,0,0,.6.246h10.09L6.715,13.114a.876.876,0,0,0-.264.6A.758.758,0,0,0,6.68,14.309Z" transform="translate(15.328 0.002) rotate(90)" fill="#fff"/>
</svg>
