<svg xmlns="http://www.w3.org/2000/svg" width="36" height="36"><path d="m35.508 31.148-7.031-7.031a1.627 1.627 0 0 0-1.2-.492h-1.121a14.17 14.17 0 0 0 3.094-9 14.2 14.2 0 0 0-1.969-7.348 14.776 14.776 0 0 0-5.309-5.309A14.2 14.2 0 0 0 14.625 0a14.2 14.2 0 0 0-7.348 1.969 14.776 14.776 0 0 0-5.309 5.309A14.2 14.2 0 0 0 0 14.625a14.2 14.2 0 0 0 1.969 7.348 14.776 14.776 0 0 0 5.308 5.308 14.2 14.2 0 0 0 7.348 1.969 14.17 14.17 0 0 0 9-3.094v1.125a1.627 1.627 0 0 0 .492 1.2l7.031 7.031a1.7 1.7 0 0 0 2.391 0l1.969-1.969A1.627 1.627 0 0 0 36 32.344a1.627 1.627 0 0 0-.492-1.196Zm-20.883-7.523a8.924 8.924 0 0 1-4.535-1.2 8.756 8.756 0 0 1-3.27-3.27 8.924 8.924 0 0 1-1.2-4.535 8.924 8.924 0 0 1 1.2-4.535 8.756 8.756 0 0 1 3.27-3.27 8.924 8.924 0 0 1 4.535-1.2 8.924 8.924 0 0 1 4.535 1.2 8.756 8.756 0 0 1 3.27 3.27 8.924 8.924 0 0 1 1.2 4.535 8.924 8.924 0 0 1-1.2 4.535 8.756 8.756 0 0 1-3.27 3.27 8.924 8.924 0 0 1-4.535 1.2Z" data-name="Path 84"/></svg>