<svg xmlns="http://www.w3.org/2000/svg" width="36" height="36" viewBox="0 0 36 36">
  <path id="Path_84" data-name="Path 84" d="M35.508-.352,28.477-7.383a1.627,1.627,0,0,0-1.2-.492H26.156a14.17,14.17,0,0,0,3.094-9,14.2,14.2,0,0,0-1.969-7.348,14.776,14.776,0,0,0-5.309-5.309A14.2,14.2,0,0,0,14.625-31.5a14.2,14.2,0,0,0-7.348,1.969,14.776,14.776,0,0,0-5.309,5.309A14.2,14.2,0,0,0,0-16.875,14.2,14.2,0,0,0,1.969-9.527,14.776,14.776,0,0,0,7.277-4.219,14.2,14.2,0,0,0,14.625-2.25a14.17,14.17,0,0,0,9-3.094v1.125a1.627,1.627,0,0,0,.492,1.2l7.031,7.031a1.7,1.7,0,0,0,2.391,0l1.969-1.969A1.627,1.627,0,0,0,36,.844,1.627,1.627,0,0,0,35.508-.352ZM14.625-7.875a8.924,8.924,0,0,1-4.535-1.2,8.756,8.756,0,0,1-3.27-3.27,8.924,8.924,0,0,1-1.2-4.535,8.924,8.924,0,0,1,1.2-4.535,8.756,8.756,0,0,1,3.27-3.27,8.924,8.924,0,0,1,4.535-1.2,8.924,8.924,0,0,1,4.535,1.2,8.756,8.756,0,0,1,3.27,3.27,8.924,8.924,0,0,1,1.2,4.535,8.924,8.924,0,0,1-1.2,4.535,8.756,8.756,0,0,1-3.27,3.27A8.924,8.924,0,0,1,14.625-7.875Z" transform="translate(0 31.5)"/>
</svg>
