<svg xmlns="http://www.w3.org/2000/svg" width="230.633" height="84.13"><g data-name="Group 758"><g fill="#f15a22" data-name="Group 746"><path d="M228.74 7.069a3.157 3.157 0 0 0 .983-.669 3.065 3.065 0 0 0 0-4.365 3.188 3.188 0 0 0-.983-.668 3.073 3.073 0 0 0-2.4 0 3.184 3.184 0 0 0-.983.668 3.087 3.087 0 0 0 3.382 5.029Zm-2.243-.371a2.507 2.507 0 0 1-.835-.572 2.622 2.622 0 0 1-.542-.852 2.95 2.95 0 0 1 0-2.11 2.6 2.6 0 0 1 .542-.847 2.534 2.534 0 0 1 .835-.567 2.611 2.611 0 0 1 1.045-.207 2.573 2.573 0 0 1 1.039.207 2.491 2.491 0 0 1 .819.567 2.629 2.629 0 0 1 .539.847 2.945 2.945 0 0 1 0 2.11 2.665 2.665 0 0 1-.539.852 2.454 2.454 0 0 1-.819.572 2.572 2.572 0 0 1-1.039.207 2.6 2.6 0 0 1-1.045-.207Zm1.541-2.34a1.949 1.949 0 0 0 .428-.06 1.006 1.006 0 0 0 .346-.167.733.733 0 0 0 .227-.289 1.037 1.037 0 0 0 .082-.433.856.856 0 0 0-.27-.669 1.424 1.424 0 0 0-.954-.244h-1.5v3.448h.423V4.355h.775l.987 1.589h.5l-1.042-1.589Zm-1.223-.334V2.806h.988a2.432 2.432 0 0 1 .31.02.866.866 0 0 1 .277.082.5.5 0 0 1 .2.179.582.582 0 0 1 .077.322.565.565 0 0 1-.119.391.6.6 0 0 1-.3.179 1.529 1.529 0 0 1-.394.049h-1.038Z" data-name="Path 1"/><path d="M51.361 82.205V1.589h27.474v67.108h11.47V82.21Z" data-name="Path 2"/><path d="M132.309 1.589h-29.338L92.303 82.21h16.668l1.867-21.854h5.224l2.005 21.854h25.046l-10.8-80.621Zm-21.513 47.186 2.824-30.88 2.027 30.945-4.847-.065Z" data-name="Path 3"/><path d="M24.136 84.13C13.736 84.13 0 80.507 0 68.052V55.66h13.1v17.6c0 3.175 1.2 3.844 3.334 3.844 2.266 0 3.467-.68 3.467-3.844V56.275c0-2.717-2.3-4.076-4.7-5.209l-5.465-2.834C2.268 44.388.001 41.664.001 33.398v-17.32C.001 3.736 14.001 0 24.401 0c10.268 0 25.2 3.623 25.2 16.078v6.6h-28.5v-11.7c0-3.175-1.066-4.886-3.334-4.886s-3.334 1.557-3.334 4.614v9.893a5.014 5.014 0 0 0 3.066 5.209l20.24 11.322c9.2 4.87 11.865 7.813 11.865 16.078v14.84c0 12.455-15.334 16.078-25.469 16.078Z" data-name="Path 4"/><path d="m182.181 1.588-5.6 49.143-6.134-49.143h-25.2v80.617h22.8V19.673l7.211 62.532h13.335l7.2-62.261v62.261h26.079V1.588Zm35.358 46.489-4.236-2.714-4.246 2.714 1.5-4.7-3.869-2.731h4.833l1.784-5.191 1.775 5.191h4.846l-3.877 2.731h-.018Zm-1.485-20.391h-.018l1.5 4.7-4.236-2.714-4.246 2.714 1.5-4.7-3.861-2.734h4.833l1.784-5.19 1.775 5.19h4.846Zm0-15.689h-.018l1.5 4.7-4.236-2.714-4.246 2.714 1.5-4.7-3.869-2.731h4.833l1.784-5.192 1.775 5.192h4.846Z" data-name="Path 76"/></g></g></svg>