<svg xmlns="http://www.w3.org/2000/svg" width="46.031" height="46.031" viewBox="0 0 46.031 46.031">
  <g id="Group_917" data-name="Group 917" transform="translate(-4 -4)">
    <path id="Path_101" data-name="Path 101" d="M27.016,4A23.016,23.016,0,1,0,50.031,27.016,23.039,23.039,0,0,0,27.016,4Zm0,3A20.014,20.014,0,1,1,7,27.016,19.991,19.991,0,0,1,27.016,7ZM19.01,17.009a3.5,3.5,0,1,0,3.5,3.5A3.5,3.5,0,0,0,19.01,17.009Zm16.011,0a3.5,3.5,0,1,0,3.5,3.5A3.5,3.5,0,0,0,35.021,17.009ZM27.016,29.517a14.764,14.764,0,0,0-12.258,6.661,1.5,1.5,0,0,0,2.5,1.681l.006-.009a11.593,11.593,0,0,1,19.513,0,1.5,1.5,0,1,0,2.507-1.665l-.006-.008A14.764,14.764,0,0,0,27.016,29.517Z" fill="#ff4500"></path>
  </g>
</svg>
