<svg xmlns="http://www.w3.org/2000/svg" width="46.031" height="46.031"><g data-name="Group 917"><path fill="#ff4500" d="M23.016 0a23.016 23.016 0 1 0 23.015 23.016A23.039 23.039 0 0 0 23.016 0Zm0 3A20.014 20.014 0 1 1 3 23.016 19.991 19.991 0 0 1 23.016 3ZM15.01 13.009a3.5 3.5 0 1 0 3.5 3.5 3.5 3.5 0 0 0-3.5-3.5Zm16.011 0a3.5 3.5 0 1 0 3.5 3.5 3.5 3.5 0 0 0-3.5-3.5Zm-8.005 12.508a14.764 14.764 0 0 0-12.258 6.661 1.506 1.506 0 0 0 2.5 1.681l.006-.009a11.593 11.593 0 0 1 19.513 0 1.505 1.505 0 1 0 2.507-1.665l-.006-.008a14.764 14.764 0 0 0-12.262-6.66Z" data-name="Path 101"/></g></svg>